<svg xmlns="http://www.w3.org/2000/svg" xmlns:xlink="http://www.w3.org/1999/xlink" width="1590" height="1649.96"><rect width="1590" height="1649.96" rx="0" ry="0" class="a"/><svg height="1649.96" viewBox="0 0 159 164.996" width="1590" xmlns="http://www.w3.org/2000/svg" xmlns:xlink="http://www.w3.org/1999/xlink"><style>.a{fill:#282d35}.d{font-weight:700}.d,.e{fill:#b9c0cb}.g{fill:#a8cc8c}.h{fill:#66c2cd}.i{fill:#b9bfca}.j{fill:#d290e3}.k{fill:#d290e4}.l{fill:#e88388}</style><g font-size="1.67" font-family="Monaco,Consolas,Menlo,'Bitstream Vera Sans Mono','Powerline Symbols',monospace"><defs><symbol id="a"><path fill="transparent" d="M0 0h159v76H0z"/></symbol></defs><path class="a" d="M0 0h159v164.996H0z"/><svg width="159"><svg><use xlink:href="#a"/><text y="1.67" class="d">Model</text><text x="10.02" y="1.67" class="d">Controller</text><text x="22.044" y="1.67" class="d">Cloud/Region</text><text x="40.08" y="1.67" class="d">Version</text><text x="49.098" y="1.67" class="d">SLA</text><text x="62.124" y="1.67" class="d">Timestamp</text><text y="3.841" class="e">charmarr</text><text x="10.02" y="3.841" class="e">mcrk8s</text><text x="22.044" y="3.841" class="e">mcrk8s/localhost</text><text x="40.08" y="3.841" fill="#dbab79">3.6.12</text><text x="49.098" y="3.841" class="e">unsupported</text><text x="62.124" y="3.841" class="e">00:08:15+01:00</text><text y="8.183" class="d">App</text><text x="19.038" y="8.183" class="d">Version</text><text x="28.056" y="8.183" class="d">Status</text><text x="36.072" y="8.183" class="d">Scale</text><text x="43.086" y="8.183" class="d">Charm</text><text x="65.13" y="8.183" class="d">Channel</text><text x="78.156" y="8.183" class="d">Rev</text><text x="83.166" y="8.183" class="d">Address</text><text x="99.198" y="8.183" class="d">Exposed</text><text x="108.216" y="8.183" class="d">Message</text><text y="10.354" class="e">arr-ingress</text><text x="28.056" y="10.354" class="g">active</text><text x="40.08" y="10.354" class="e">1</text><text x="43.086" y="10.354" class="e">istio-ingress-k8s</text><text x="65.13" y="10.354" class="e">2/edge</text><text x="79.158" y="10.354" class="e">56</text><text x="83.166" y="10.354" class="h">10.152.183.210</text><text x="99.198" y="10.354" class="e">no</text><text x="108.216" y="10.354" class="i">Serving</text><text x="116.232" y="10.354" class="i">at</text><text x="119.238" y="10.354" class="i">192.168.0.133</text><text y="12.525" class="e">beacon</text><text x="28.056" y="12.525" class="g">active</text><text x="40.08" y="12.525" class="e">1</text><text x="43.086" y="12.525" class="e">istio-beacon-k8s</text><text x="65.13" y="12.525" class="e">2/edge</text><text x="79.158" y="12.525" class="e">58</text><text x="83.166" y="12.525" class="h">10.152.183.112</text><text x="99.198" y="12.525" class="e">no</text><text y="14.696" class="e">flaresolverr</text><text x="28.056" y="14.696" class="g">active</text><text x="40.08" y="14.696" class="e">1</text><text x="43.086" y="14.696" class="e">flaresolverr-k8s</text><text x="65.13" y="14.696" class="e">latest/edge</text><text x="80.16" y="14.696" class="e">4</text><text x="83.166" y="14.696" class="h">10.152.183.47</text><text x="99.198" y="14.696" class="e">no</text><text y="16.867" class="e">gluetun</text><text x="28.056" y="16.867" class="g">active</text><text x="40.08" y="16.867" class="e">1</text><text x="43.086" y="16.867" class="e">gluetun-k8s</text><text x="65.13" y="16.867" class="e">latest/edge</text><text x="80.16" y="16.867" class="e">6</text><text x="83.166" y="16.867" class="h">10.152.183.132</text><text x="99.198" y="16.867" class="e">no</text><text x="108.216" y="16.867" class="i">VPN</text><text x="112.224" y="16.867" class="i">connected</text><text x="122.244" y="16.867" class="i">(178.218.167.218)</text><text y="19.038" class="e">istio</text><text x="19.038" y="19.038" class="e">1.26.1</text><text x="28.056" y="19.038" class="g">active</text><text x="40.08" y="19.038" class="e">1</text><text x="43.086" y="19.038" class="e">istio-k8s</text><text x="65.13" y="19.038" class="e">2/edge</text><text x="79.158" y="19.038" class="e">44</text><text x="83.166" y="19.038" class="h">10.152.183.241</text><text x="99.198" y="19.038" class="e">no</text><text y="21.209" class="e">overseerr</text><text x="28.056" y="21.209" class="g">active</text><text x="40.08" y="21.209" class="e">1</text><text x="43.086" y="21.209" class="e">overseerr-k8s</text><text x="65.13" y="21.209" class="e">latest/edge</text><text x="80.16" y="21.209" class="e">7</text><text x="83.166" y="21.209" class="h">10.152.183.56</text><text x="99.198" y="21.209" class="e">no</text><text y="23.38" class="e">overseerr-ingress</text><text x="28.056" y="23.38" class="g">active</text><text x="40.08" y="23.38" class="e">1</text><text x="43.086" y="23.38" class="e">istio-ingress-k8s</text><text x="65.13" y="23.38" class="e">2/edge</text><text x="79.158" y="23.38" class="e">56</text><text x="83.166" y="23.38" class="h">10.152.183.222</text><text x="99.198" y="23.38" class="e">no</text><text x="108.216" y="23.38" class="i">Serving</text><text x="116.232" y="23.38" class="i">at</text><text x="119.238" y="23.38" class="i">192.168.0.132</text><text y="25.551" class="e">plex</text><text x="28.056" y="25.551" class="g">active</text><text x="40.08" y="25.551" class="e">1</text><text x="43.086" y="25.551" class="e">plex-k8s</text><text x="65.13" y="25.551" class="e">latest/edge</text><text x="80.16" y="25.551" class="e">5</text><text x="83.166" y="25.551" class="h">10.152.183.79</text><text x="99.198" y="25.551" class="e">no</text><text y="27.722" class="e">plex-ingress</text><text x="28.056" y="27.722" class="g">active</text><text x="40.08" y="27.722" class="e">1</text><text x="43.086" y="27.722" class="e">istio-ingress-k8s</text><text x="65.13" y="27.722" class="e">2/edge</text><text x="79.158" y="27.722" class="e">56</text><text x="83.166" y="27.722" class="h">10.152.183.198</text><text x="99.198" y="27.722" class="e">no</text><text x="108.216" y="27.722" class="i">Serving</text><text x="116.232" y="27.722" class="i">at</text><text x="119.238" y="27.722" class="i">192.168.0.134</text><text y="29.893" class="e">prowlarr</text><text x="28.056" y="29.893" class="g">active</text><text x="40.08" y="29.893" class="e">1</text><text x="43.086" y="29.893" class="e">prowlarr-k8s</text><text x="65.13" y="29.893" class="e">latest/edge</text><text x="80.16" y="29.893" class="e">7</text><text x="83.166" y="29.893" class="h">10.152.183.86</text><text x="99.198" y="29.893" class="e">no</text><text y="32.064" class="e">qbittorrent</text><text x="28.056" y="32.064" class="g">active</text><text x="40.08" y="32.064" class="e">1</text><text x="43.086" y="32.064" class="e">qbittorrent-k8s</text><text x="65.13" y="32.064" class="e">latest/edge</text><text x="79.158" y="32.064" class="e">10</text><text x="83.166" y="32.064" class="h">10.152.183.229</text><text x="99.198" y="32.064" class="e">no</text><text y="34.235" class="e">radarr</text><text x="28.056" y="34.235" class="g">active</text><text x="40.08" y="34.235" class="e">1</text><text x="43.086" y="34.235" class="e">radarr-k8s</text><text x="65.13" y="34.235" class="e">latest/edge</text><text x="80.16" y="34.235" class="e">8</text><text x="83.166" y="34.235" class="h">10.152.183.151</text><text x="99.198" y="34.235" class="e">no</text><text y="36.406" class="e">sabnzbd</text><text x="28.056" y="36.406" class="g">active</text><text x="40.08" y="36.406" class="e">1</text><text x="43.086" y="36.406" class="e">sabnzbd-k8s</text><text x="65.13" y="36.406" class="e">latest/edge</text><text x="80.16" y="36.406" class="e">9</text><text x="83.166" y="36.406" class="h">10.152.183.30</text><text x="99.198" y="36.406" class="e">no</text><text y="38.577" class="e">sonarr</text><text x="28.056" y="38.577" class="g">active</text><text x="40.08" y="38.577" class="e">1</text><text x="43.086" y="38.577" class="e">sonarr-k8s</text><text x="65.13" y="38.577" class="e">latest/edge</text><text x="80.16" y="38.577" class="e">8</text><text x="83.166" y="38.577" class="h">10.152.183.138</text><text x="99.198" y="38.577" class="e">no</text><text y="40.748" class="e">storage</text><text x="28.056" y="40.748" class="g">active</text><text x="40.08" y="40.748" class="e">1</text><text x="43.086" y="40.748" class="e">charmarr-storage-k8s</text><text x="65.13" y="40.748" class="e">latest/edge</text><text x="80.16" y="40.748" class="e">9</text><text x="83.166" y="40.748" class="h">10.152.183.221</text><text x="99.198" y="40.748" class="e">no</text><text y="45.09" class="d">Unit</text><text x="22.044" y="45.09" class="d">Workload</text><text x="32.064" y="45.09" class="d">Agent</text><text x="39.078" y="45.09" class="d">Address</text><text x="53.106" y="45.09" class="d">Ports</text><text x="64.128" y="45.09" class="d">Message</text><text y="47.261" class="e">arr-ingress/0*</text><text x="22.044" y="47.261" class="g">active</text><text x="32.064" y="47.261" class="g">idle</text><text x="39.078" y="47.261" class="h">10.1.239.102</text><text x="64.128" y="47.261" class="i">Serving</text><text x="72.144" y="47.261" class="i">at</text><text x="75.15" y="47.261" class="i">192.168.0.133</text><text y="49.432" class="e">beacon/0*</text><text x="22.044" y="49.432" class="g">active</text><text x="32.064" y="49.432" class="g">idle</text><text x="39.078" y="49.432" class="h">10.1.239.109</text><text y="51.603" class="e">flaresolverr/0*</text><text x="22.044" y="51.603" class="g">active</text><text x="32.064" y="51.603" class="g">idle</text><text x="39.078" y="51.603" class="h">10.1.239.111</text><text y="53.774" class="e">gluetun/0*</text><text x="22.044" y="53.774" class="g">active</text><text x="32.064" y="53.774" class="g">idle</text><text x="39.078" y="53.774" class="h">10.1.239.106</text><text x="53.106" y="53.774" class="j">53</text><text x="55.11" y="53.774" class="e">,</text><text x="56.112" y="53.774" class="j">67</text><text x="58.116" y="53.774" class="e">/UDP</text><text x="64.128" y="53.774" class="i">VPN</text><text x="68.136" y="53.774" class="i">connected</text><text x="78.156" y="53.774" class="i">(178.218.167.218)</text><text y="55.945" class="e">istio/0*</text><text x="22.044" y="55.945" class="g">active</text><text x="32.064" y="55.945" class="g">idle</text><text x="39.078" y="55.945" class="h">10.1.239.67</text><text y="58.116" class="e">overseerr-ingress/0*</text><text x="22.044" y="58.116" class="g">active</text><text x="32.064" y="58.116" class="g">idle</text><text x="39.078" y="58.116" class="h">10.1.239.116</text><text x="64.128" y="58.116" class="i">Serving</text><text x="72.144" y="58.116" class="i">at</text><text x="75.15" y="58.116" class="i">192.168.0.132</text><text y="60.287" class="e">overseerr/0*</text><text x="22.044" y="60.287" class="g">active</text><text x="32.064" y="60.287" class="g">idle</text><text x="39.078" y="60.287" class="h">10.1.239.90</text><text y="62.458" class="e">plex-ingress/0*</text><text x="22.044" y="62.458" class="g">active</text><text x="32.064" y="62.458" class="g">idle</text><text x="39.078" y="62.458" class="h">10.1.239.97</text><text x="64.128" y="62.458" class="i">Serving</text><text x="72.144" y="62.458" class="i">at</text><text x="75.15" y="62.458" class="i">192.168.0.134</text><text y="64.629" class="e">plex/0*</text><text x="22.044" y="64.629" class="g">active</text><text x="32.064" y="64.629" class="g">idle</text><text x="39.078" y="64.629" class="h">10.1.239.96</text><text y="66.8" class="e">prowlarr/0*</text><text x="22.044" y="66.8" class="g">active</text><text x="32.064" y="66.8" class="g">idle</text><text x="39.078" y="66.8" class="h">10.1.239.89</text><text y="68.971" class="e">qbittorrent/0*</text><text x="22.044" y="68.971" class="g">active</text><text x="32.064" y="68.971" class="g">idle</text><text x="39.078" y="68.971" class="h">10.1.239.124</text><text y="71.142" class="e">radarr/0*</text><text x="22.044" y="71.142" class="g">active</text><text x="32.064" y="71.142" class="g">idle</text><text x="39.078" y="71.142" class="h">10.1.239.74</text><text y="73.313" class="e">sabnzbd/0*</text><text x="22.044" y="73.313" class="g">active</text><text x="32.064" y="73.313" class="g">idle</text><text x="39.078" y="73.313" class="h">10.1.239.82</text><text y="75.484" class="e">sonarr/0*</text><text x="22.044" y="75.484" class="g">active</text><text x="32.064" y="75.484" class="g">idle</text><text x="39.078" y="75.484" class="h">10.1.239.68</text><text y="77.655" class="e">storage/0*</text><text x="22.044" y="77.655" class="g">active</text><text x="32.064" y="77.655" class="g">idle</text><text x="39.078" y="77.655" class="h">10.1.239.104</text><text y="81.997" class="d">Integration</text><text x="12.024" y="81.997" class="d">provider</text><text x="39.078" y="81.997" class="d">Requirer</text><text x="72.144" y="81.997" class="d">Interface</text><text x="97.194" y="81.997" class="d">Type</text><text x="106.212" y="81.997" class="d">Message</text><text y="84.168" class="e">arr-ingress</text><text x="11.022" y="84.168" class="k">:istio-ingress-route</text><text x="39.078" y="84.168" class="e">prowlarr</text><text x="47.094" y="84.168" class="k">:istio-ingress-route</text><text x="72.144" y="84.168" class="e">istio_ingress_route</text><text x="97.194" y="84.168" class="e">regular</text><text y="86.339" class="e">arr-ingress</text><text x="11.022" y="86.339" class="k">:istio-ingress-route</text><text x="39.078" y="86.339" class="e">qbittorrent</text><text x="50.1" y="86.339" class="k">:istio-ingress-route</text><text x="72.144" y="86.339" class="e">istio_ingress_route</text><text x="97.194" y="86.339" class="e">regular</text><text y="88.51" class="e">arr-ingress</text><text x="11.022" y="88.51" class="k">:istio-ingress-route</text><text x="39.078" y="88.51" class="e">radarr</text><text x="45.09" y="88.51" class="k">:istio-ingress-route</text><text x="72.144" y="88.51" class="e">istio_ingress_route</text><text x="97.194" y="88.51" class="e">regular</text><text y="90.681" class="e">arr-ingress</text><text x="11.022" y="90.681" class="k">:istio-ingress-route</text><text x="39.078" y="90.681" class="e">sabnzbd</text><text x="46.092" y="90.681" class="k">:istio-ingress-route</text><text x="72.144" y="90.681" class="e">istio_ingress_route</text><text x="97.194" y="90.681" class="e">regular</text><text y="92.852" class="e">arr-ingress</text><text x="11.022" y="92.852" class="k">:istio-ingress-route</text><text x="39.078" y="92.852" class="e">sonarr</text><text x="45.09" y="92.852" class="k">:istio-ingress-route</text><text x="72.144" y="92.852" class="e">istio_ingress_route</text><text x="97.194" y="92.852" class="e">regular</text><text y="95.023" class="e">arr-ingress</text><text x="11.022" y="95.023" class="k">:peers</text><text x="39.078" y="95.023" class="e">arr-ingress</text><text x="50.1" y="95.023" class="k">:peers</text><text x="72.144" y="95.023" class="e">istio_ingress_k8s_peers</text><text x="97.194" y="95.023" class="e">peer</text><text y="97.194" class="e">beacon</text><text x="6.012" y="97.194" class="k">:peers</text><text x="39.078" y="97.194" class="e">beacon</text><text x="45.09" y="97.194" class="k">:peers</text><text x="72.144" y="97.194" class="e">istio_beacon_k8s_peers</text><text x="97.194" y="97.194" class="e">peer</text><text y="99.365" class="e">beacon</text><text x="6.012" y="99.365" class="k">:service-mesh</text><text x="39.078" y="99.365" class="e">flaresolverr</text><text x="51.102" y="99.365" class="k">:service-mesh</text><text x="72.144" y="99.365" class="e">service_mesh</text><text x="97.194" y="99.365" class="e">regular</text><text y="101.536" class="e">beacon</text><text x="6.012" y="101.536" class="k">:service-mesh</text><text x="39.078" y="101.536" class="e">overseerr</text><text x="48.096" y="101.536" class="k">:service-mesh</text><text x="72.144" y="101.536" class="e">service_mesh</text><text x="97.194" y="101.536" class="e">regular</text><text y="103.707" class="e">beacon</text><text x="6.012" y="103.707" class="k">:service-mesh</text><text x="39.078" y="103.707" class="e">plex</text><text x="43.086" y="103.707" class="k">:service-mesh</text><text x="72.144" y="103.707" class="e">service_mesh</text><text x="97.194" y="103.707" class="e">regular</text><text y="105.878" class="e">beacon</text><text x="6.012" y="105.878" class="k">:service-mesh</text><text x="39.078" y="105.878" class="e">prowlarr</text><text x="47.094" y="105.878" class="k">:service-mesh</text><text x="72.144" y="105.878" class="e">service_mesh</text><text x="97.194" y="105.878" class="e">regular</text><text y="108.049" class="e">beacon</text><text x="6.012" y="108.049" class="k">:service-mesh</text><text x="39.078" y="108.049" class="e">qbittorrent</text><text x="50.1" y="108.049" class="k">:service-mesh</text><text x="72.144" y="108.049" class="e">service_mesh</text><text x="97.194" y="108.049" class="e">regular</text><text y="110.22" class="e">beacon</text><text x="6.012" y="110.22" class="k">:service-mesh</text><text x="39.078" y="110.22" class="e">radarr</text><text x="45.09" y="110.22" class="k">:service-mesh</text><text x="72.144" y="110.22" class="e">service_mesh</text><text x="97.194" y="110.22" class="e">regular</text><text y="112.391" class="e">beacon</text><text x="6.012" y="112.391" class="k">:service-mesh</text><text x="39.078" y="112.391" class="e">sabnzbd</text><text x="46.092" y="112.391" class="k">:service-mesh</text><text x="72.144" y="112.391" class="e">service_mesh</text><text x="97.194" y="112.391" class="e">regular</text><text y="114.562" class="e">beacon</text><text x="6.012" y="114.562" class="k">:service-mesh</text><text x="39.078" y="114.562" class="e">sonarr</text><text x="45.09" y="114.562" class="k">:service-mesh</text><text x="72.144" y="114.562" class="e">service_mesh</text><text x="97.194" y="114.562" class="e">regular</text><text y="116.733" class="e">flaresolverr</text><text x="12.024" y="116.733" class="k">:flaresolverr</text><text x="39.078" y="116.733" class="e">prowlarr</text><text x="47.094" y="116.733" class="k">:flaresolverr</text><text x="72.144" y="116.733" class="e">flaresolverr</text><text x="97.194" y="116.733" class="e">regular</text><text y="118.904" class="e">gluetun</text><text x="7.014" y="118.904" class="k">:vpn-gateway</text><text x="39.078" y="118.904" class="e">prowlarr</text><text x="47.094" y="118.904" class="k">:vpn-gateway</text><text x="72.144" y="118.904" class="e">vpn-gateway</text><text x="97.194" y="118.904" class="e">regular</text><text y="121.075" class="e">gluetun</text><text x="7.014" y="121.075" class="k">:vpn-gateway</text><text x="39.078" y="121.075" class="e">qbittorrent</text><text x="50.1" y="121.075" class="k">:vpn-gateway</text><text x="72.144" y="121.075" class="e">vpn-gateway</text><text x="97.194" y="121.075" class="e">regular</text><text y="123.246" class="e">gluetun</text><text x="7.014" y="123.246" class="k">:vpn-gateway</text><text x="39.078" y="123.246" class="e">sabnzbd</text><text x="46.092" y="123.246" class="k">:vpn-gateway</text><text x="72.144" y="123.246" class="e">vpn-gateway</text><text x="97.194" y="123.246" class="e">regular</text><text y="125.417" class="e">istio</text><text x="5.01" y="125.417" class="k">:peers</text><text x="39.078" y="125.417" class="e">istio</text><text x="44.088" y="125.417" class="k">:peers</text><text x="72.144" y="125.417" class="e">istio_k8s_peers</text><text x="97.194" y="125.417" class="e">peer</text><text y="127.588" class="e">overseerr-ingress</text><text x="17.034" y="127.588" class="k">:istio-ingress-route</text><text x="39.078" y="127.588" class="e">overseerr</text><text x="48.096" y="127.588" class="k">:istio-ingress-route</text><text x="72.144" y="127.588" class="e">istio_ingress_route</text><text x="97.194" y="127.588" class="e">regular</text><text y="129.759" class="e">overseerr-ingress</text><text x="17.034" y="129.759" class="k">:peers</text><text x="39.078" y="129.759" class="e">overseerr-ingress</text><text x="56.112" y="129.759" class="k">:peers</text><text x="72.144" y="129.759" class="e">istio_ingress_k8s_peers</text><text x="97.194" y="129.759" class="e">peer</text><text y="131.93" class="e">plex-ingress</text><text x="12.024" y="131.93" class="k">:istio-ingress-route</text><text x="39.078" y="131.93" class="e">plex</text><text x="43.086" y="131.93" class="k">:istio-ingress-route</text><text x="72.144" y="131.93" class="e">istio_ingress_route</text><text x="97.194" y="131.93" class="e">regular</text><text y="134.101" class="e">plex-ingress</text><text x="12.024" y="134.101" class="k">:peers</text><text x="39.078" y="134.101" class="e">plex-ingress</text><text x="51.102" y="134.101" class="k">:peers</text><text x="72.144" y="134.101" class="e">istio_ingress_k8s_peers</text><text x="97.194" y="134.101" class="e">peer</text><text y="136.272" class="e">plex</text><text x="4.008" y="136.272" class="k">:media-server</text><text x="39.078" y="136.272" class="e">overseerr</text><text x="48.096" y="136.272" class="k">:media-server</text><text x="72.144" y="136.272" class="e">media-server</text><text x="97.194" y="136.272" class="e">regular</text><text y="138.443" class="e">prowlarr</text><text x="8.016" y="138.443" class="k">:media-indexer</text><text x="39.078" y="138.443" class="e">radarr</text><text x="45.09" y="138.443" class="k">:media-indexer</text><text x="72.144" y="138.443" class="e">media-indexer</text><text x="97.194" y="138.443" class="e">regular</text><text y="140.614" class="e">prowlarr</text><text x="8.016" y="140.614" class="k">:media-indexer</text><text x="39.078" y="140.614" class="e">sonarr</text><text x="45.09" y="140.614" class="k">:media-indexer</text><text x="72.144" y="140.614" class="e">media-indexer</text><text x="97.194" y="140.614" class="e">regular</text><text y="142.785" class="e">radarr</text><text x="6.012" y="142.785" class="k">:media-manager</text><text x="39.078" y="142.785" class="e">overseerr</text><text x="48.096" y="142.785" class="k">:media-manager</text><text x="72.144" y="142.785" class="e">media-manager</text><text x="97.194" y="142.785" class="e">regular</text><text y="144.956" class="e">radarr</text><text x="6.012" y="144.956" class="k">:media-manager</text><text x="39.078" y="144.956" class="e">plex</text><text x="43.086" y="144.956" class="k">:media-manager</text><text x="72.144" y="144.956" class="e">media-manager</text><text x="97.194" y="144.956" class="e">regular</text><text y="147.127" class="e">sonarr</text><text x="6.012" y="147.127" class="k">:media-manager</text><text x="39.078" y="147.127" class="e">overseerr</text><text x="48.096" y="147.127" class="k">:media-manager</text><text x="72.144" y="147.127" class="e">media-manager</text><text x="97.194" y="147.127" class="e">regular</text><text y="149.298" class="e">sonarr</text><text x="6.012" y="149.298" class="k">:media-manager</text><text x="39.078" y="149.298" class="e">plex</text><text x="43.086" y="149.298" class="k">:media-manager</text><text x="72.144" y="149.298" class="e">media-manager</text><text x="97.194" y="149.298" class="e">regular</text><text y="151.469" class="e">storage</text><text x="7.014" y="151.469" class="k">:media-storage</text><text x="39.078" y="151.469" class="e">plex</text><text x="43.086" y="151.469" class="k">:media-storage</text><text x="72.144" y="151.469" class="e">media-storage</text><text x="97.194" y="151.469" class="e">regular</text><text y="153.64" class="e">storage</text><text x="7.014" y="153.64" class="k">:media-storage</text><text x="39.078" y="153.64" class="e">qbittorrent</text><text x="50.1" y="153.64" class="k">:media-storage</text><text x="72.144" y="153.64" class="e">media-storage</text><text x="97.194" y="153.64" class="e">regular</text><text y="155.811" class="e">storage</text><text x="7.014" y="155.811" class="k">:media-storage</text><text x="39.078" y="155.811" class="e">radarr</text><text x="45.09" y="155.811" class="k">:media-storage</text><text x="72.144" y="155.811" class="e">media-storage</text><text x="97.194" y="155.811" class="e">regular</text><text y="157.982" class="e">storage</text><text x="7.014" y="157.982" class="k">:media-storage</text><text x="39.078" y="157.982" class="e">sabnzbd</text><text x="46.092" y="157.982" class="k">:media-storage</text><text x="72.144" y="157.982" class="e">media-storage</text><text x="97.194" y="157.982" class="e">regular</text><text y="160.153" class="e">storage</text><text x="7.014" y="160.153" class="k">:media-storage</text><text x="39.078" y="160.153" class="e">sonarr</text><text x="45.09" y="160.153" class="k">:media-storage</text><text x="72.144" y="160.153" class="e">media-storage</text><text x="97.194" y="160.153" class="e">regular</text><text x="129.258" y="164.495" class="e">(S)uspend</text><text x="139.278" y="164.495" class="l">◯</text><text x="141.282" y="164.495" class="e">(B)ell</text><text x="148.296" y="164.495" class="l">◯</text><text x="150.3" y="164.495" class="e">(H)elp</text><text x="157.314" y="164.495" fill="#73bef3">?</text></svg></svg></g></svg></svg>